<svg width="412" height="39" viewBox="0 0 412 39" fill="none" xmlns="http://www.w3.org/2000/svg">
<path d="M0.612752 37.0595V0.610006H411.544V30.8439L406.026 37.0595H0.612752Z" stroke="white" stroke-opacity="0.6" stroke-width="0.499309"/>
<rect width="1.6748" height="5.02439" fill="white"/>
<rect y="1.6748" width="1.6748" height="5.02439" transform="rotate(-90 0 1.6748)" fill="white"/>
<rect width="1.6748" height="5.02439" transform="matrix(-1 0 0 1 412 0)" fill="white"/>
<rect width="1.6748" height="5.02439" transform="matrix(4.37114e-08 -1 -1 -4.37114e-08 412 1.6748)" fill="white"/>
<rect width="1.6748" height="5.02439" transform="matrix(1 0 0 -1 0 38.5215)" fill="white"/>
<rect width="1.6748" height="5.02439" transform="matrix(-4.37114e-08 1 1 4.37114e-08 0 36.8467)" fill="white"/>
<path d="M406.976 37.376L412 31.821L412 37.376L406.976 37.376Z" fill="#D9D9D9"/>
</svg>
