<svg  viewBox="0 0 1317 1604" fill="none" xmlns="http://www.w3.org/2000/svg">
<path d="M3 208L29 223.732V1485.5L3 1542.35V1603H1296.64V787.36L1314.14 735.076C1317.51 725.037 1315.54 266.188 1314.14 43.1075L1264 1H67.5H3V208Z" stroke="#EAEAEA" stroke-width="0.5"/>
<path fill-rule="evenodd" clip-rule="evenodd" d="M1297.89 1602.56V1217L1268.94 1275.36V1417.87L1279.07 1428.83L1268.94 1438.39V1525.03L1279.36 1535.29V1584.03H1225.29L1215.03 1573.6H1128.39L1118.37 1583.74L1107.87 1573.6H965.364L907 1602.56H1279.36H1292.56H1297.89Z" fill="url(#paint0_linear_2166_2)"/>
<path d="M1118.37 1585.18L1120.88 1589.53H1115.86L1118.37 1585.18Z" fill="black"/>
<path d="M1280.52 1428.82L1284.86 1426.32L1284.86 1431.33L1280.52 1428.82Z" fill="black"/>
<path d="M1279.64 1584.36L1284.5 1585.6L1281 1589.19L1279.64 1584.36Z" fill="black"/>
<path d="M1211.03 1576.49L1219.71 1585.18H1199.44V1576.49H1211.03Z" fill="black"/>
<rect x="1193.65" y="1576.49" width="2.89551" height="8.68653" fill="black"/>
<rect x="1187.86" y="1576.49" width="2.89551" height="8.68653" fill="black"/>
<rect x="1182.07" y="1576.49" width="2.89551" height="8.68653" fill="black"/>
<rect x="1176.28" y="1576.49" width="2.89551" height="8.68653" fill="black"/>
<rect x="1170.49" y="1576.49" width="2.89551" height="8.68653" fill="black"/>
<rect x="1164.7" y="1576.49" width="2.89551" height="8.68653" fill="black"/>
<path d="M1282.2 1286.94L1289.69 1286.94L1289.69 1288.08L1282.2 1288.08L1282.2 1286.94ZM1282.2 1288.47L1289.69 1288.47L1289.69 1288.85L1282.2 1288.85L1282.2 1288.47ZM1282.2 1289.23L1289.69 1289.23L1289.69 1290.37L1282.2 1290.37L1282.2 1289.23ZM1282.2 1291.51L1289.69 1291.51L1289.69 1291.89L1282.2 1291.89L1282.2 1291.51ZM1282.2 1292.27L1289.69 1292.27L1289.69 1292.65L1282.2 1292.65L1282.2 1292.27ZM1281.1 1289.09L1281.1 1290.89L1280.81 1290.89L1280.81 1289.39L1279.85 1289.39L1279.85 1290.63L1279.54 1290.63L1279.54 1289.39L1278.45 1289.39L1278.45 1290.87L1278.16 1290.87L1278.16 1289.09L1281.1 1289.09ZM1282.2 1293.67L1289.69 1293.67L1289.69 1294.05L1282.2 1294.05L1282.2 1293.67ZM1282.2 1294.43L1289.69 1294.43L1289.69 1294.81L1282.2 1294.81L1282.2 1294.43ZM1282.2 1295.19L1289.69 1295.19L1289.69 1296.33L1282.2 1296.33L1282.2 1295.19ZM1282.2 1296.71L1289.69 1296.71L1289.69 1297.86L1282.2 1297.86L1282.2 1296.71ZM1282.2 1299L1289.69 1299L1289.69 1299.38L1282.2 1299.38L1282.2 1299ZM1280.81 1296.51L1280.81 1295.69L1281.1 1295.69L1281.1 1297.72L1280.81 1297.72L1280.81 1296.85L1278.16 1296.85L1278.16 1296.51L1280.81 1296.51ZM1282.2 1300.4L1289.69 1300.4L1289.69 1301.54L1282.2 1301.54L1282.2 1300.4ZM1282.2 1301.92L1289.69 1301.92L1289.69 1302.3L1282.2 1302.3L1282.2 1301.92ZM1282.2 1302.68L1289.69 1302.68L1289.69 1303.06L1282.2 1303.06L1282.2 1302.68ZM1282.2 1304.2L1289.69 1304.2L1289.69 1305.34L1282.2 1305.34L1282.2 1304.2ZM1282.2 1305.72L1289.69 1305.72L1289.69 1306.1L1282.2 1306.1L1282.2 1305.72ZM1281.1 1302.5L1281.1 1302.88L1281.06 1302.88C1281.05 1302.87 1281.02 1302.85 1281 1302.84C1280.98 1302.84 1280.94 1302.84 1280.89 1302.84L1279.85 1302.84L1279.85 1303.99L1281.1 1303.99L1281.1 1304.38L1281.06 1304.38C1281.05 1304.36 1281.02 1304.35 1281 1304.34C1280.98 1304.34 1280.94 1304.34 1280.89 1304.34L1278.16 1304.34L1278.16 1303.99L1279.55 1303.99L1279.55 1302.84L1278.16 1302.84L1278.16 1302.5L1281.1 1302.5ZM1282.2 1307.12L1289.69 1307.12L1289.69 1308.27L1282.2 1308.27L1282.2 1307.12ZM1282.2 1308.65L1289.69 1308.65L1289.69 1309.03L1282.2 1309.03L1282.2 1308.65ZM1282.2 1309.41L1289.69 1309.41L1289.69 1310.55L1282.2 1310.55L1282.2 1309.41ZM1282.2 1310.93L1289.69 1310.93L1289.69 1311.31L1282.2 1311.31L1282.2 1310.93ZM1282.2 1312.45L1289.69 1312.45L1289.69 1312.83L1282.2 1312.83L1282.2 1312.45ZM1278.11 1310.17C1278.11 1309.83 1278.24 1309.57 1278.5 1309.39C1278.76 1309.21 1279.14 1309.12 1279.62 1309.12C1280.08 1309.12 1280.45 1309.21 1280.72 1309.39C1280.98 1309.58 1281.11 1309.84 1281.11 1310.17C1281.11 1310.5 1280.98 1310.76 1280.72 1310.94C1280.45 1311.13 1280.08 1311.22 1279.62 1311.22C1279.14 1311.22 1278.76 1311.13 1278.5 1310.94C1278.24 1310.76 1278.11 1310.51 1278.11 1310.17ZM1278.4 1310.17C1278.4 1310.4 1278.5 1310.57 1278.7 1310.69C1278.92 1310.81 1279.22 1310.88 1279.62 1310.88C1279.99 1310.88 1280.29 1310.81 1280.5 1310.69C1280.72 1310.56 1280.82 1310.39 1280.82 1310.17C1280.82 1309.95 1280.72 1309.77 1280.5 1309.65C1280.29 1309.52 1279.99 1309.46 1279.62 1309.46C1279.22 1309.46 1278.92 1309.52 1278.7 1309.63C1278.5 1309.76 1278.4 1309.94 1278.4 1310.17ZM1282.2 1313.85L1289.69 1313.85L1289.69 1314.23L1282.2 1314.23L1282.2 1313.85ZM1282.2 1314.61L1289.69 1314.61L1289.69 1315.75L1282.2 1315.75L1282.2 1314.61ZM1282.2 1316.13L1289.69 1316.13L1289.69 1316.51L1282.2 1316.51L1282.2 1316.13ZM1282.2 1316.89L1289.69 1316.89L1289.69 1318.04L1282.2 1318.04L1282.2 1316.89ZM1282.2 1319.18L1289.69 1319.18L1289.69 1319.56L1282.2 1319.56L1282.2 1319.18ZM1278.11 1316.88C1278.11 1316.5 1278.23 1316.19 1278.49 1315.96L1278.78 1316.13L1278.82 1316.15L1278.81 1316.18C1278.8 1316.18 1278.78 1316.19 1278.75 1316.2C1278.74 1316.2 1278.72 1316.21 1278.69 1316.22C1278.67 1316.23 1278.66 1316.25 1278.64 1316.27C1278.49 1316.45 1278.41 1316.67 1278.41 1316.93C1278.41 1317.1 1278.46 1317.25 1278.55 1317.36C1278.65 1317.48 1278.77 1317.54 1278.91 1317.54C1279 1317.54 1279.08 1317.52 1279.15 1317.48C1279.21 1317.44 1279.27 1317.38 1279.33 1317.29C1279.38 1317.19 1279.46 1317.05 1279.54 1316.86C1279.65 1316.57 1279.78 1316.36 1279.92 1316.24C1280.07 1316.12 1280.23 1316.06 1280.4 1316.06C1280.62 1316.06 1280.8 1316.14 1280.94 1316.3C1281.07 1316.46 1281.14 1316.67 1281.14 1316.95C1281.14 1317.11 1281.11 1317.26 1281.04 1317.4C1280.97 1317.54 1280.88 1317.66 1280.77 1317.77L1280.48 1317.55L1280.5 1317.53C1280.51 1317.53 1280.53 1317.52 1280.54 1317.52C1280.57 1317.52 1280.59 1317.51 1280.61 1317.49C1280.63 1317.48 1280.65 1317.47 1280.67 1317.44C1280.74 1317.37 1280.79 1317.29 1280.82 1317.2C1280.85 1317.11 1280.86 1317.01 1280.86 1316.89C1280.86 1316.74 1280.82 1316.62 1280.73 1316.54C1280.65 1316.45 1280.55 1316.4 1280.43 1316.4C1280.34 1316.4 1280.26 1316.42 1280.19 1316.45C1280.12 1316.49 1280.06 1316.56 1280 1316.67C1279.93 1316.77 1279.86 1316.92 1279.78 1317.12C1279.66 1317.4 1279.55 1317.6 1279.43 1317.71C1279.3 1317.81 1279.14 1317.86 1278.96 1317.86C1278.81 1317.86 1278.68 1317.82 1278.55 1317.76C1278.43 1317.68 1278.32 1317.57 1278.23 1317.43C1278.15 1317.27 1278.11 1317.09 1278.11 1316.88ZM1282.2 1320.58L1289.69 1320.58L1289.69 1320.96L1282.2 1320.96L1282.2 1320.58ZM1282.2 1322.1L1289.69 1322.1L1289.69 1323.24L1282.2 1323.24L1282.2 1322.1ZM1282.2 1323.62L1289.69 1323.62L1289.69 1324L1282.2 1324L1282.2 1323.62ZM1282.2 1324.38L1289.69 1324.38L1289.69 1325.52L1282.2 1325.52L1282.2 1324.38ZM1282.2 1325.9L1289.69 1325.9L1289.69 1326.28L1282.2 1326.28L1282.2 1325.9ZM1282.2 1327.3L1289.69 1327.3L1289.69 1328.45L1282.2 1328.45L1282.2 1327.3ZM1282.2 1329.59L1289.69 1329.59L1289.69 1329.97L1282.2 1329.97L1282.2 1329.59ZM1282.2 1330.35L1289.69 1330.35L1289.69 1330.73L1282.2 1330.73L1282.2 1330.35ZM1282.2 1331.11L1289.69 1331.11L1289.69 1331.49L1282.2 1331.49L1282.2 1331.11ZM1282.2 1331.87L1289.69 1331.87L1289.69 1333.01L1282.2 1333.01L1282.2 1331.87ZM1278.11 1330.35C1278.11 1330.04 1278.2 1329.81 1278.39 1329.65C1278.57 1329.49 1278.84 1329.41 1279.17 1329.41L1281.1 1329.41L1281.1 1329.78L1281.06 1329.78C1281.05 1329.75 1281.02 1329.74 1281 1329.74C1280.98 1329.73 1280.94 1329.73 1280.89 1329.73L1279.17 1329.73C1278.92 1329.73 1278.73 1329.78 1278.59 1329.88C1278.45 1329.97 1278.39 1330.13 1278.39 1330.36C1278.39 1330.58 1278.45 1330.74 1278.59 1330.84C1278.73 1330.94 1278.92 1330.99 1279.19 1330.99L1281.1 1330.99L1281.1 1331.31L1279.19 1331.31C1278.82 1331.31 1278.55 1331.23 1278.37 1331.06C1278.2 1330.89 1278.11 1330.65 1278.11 1330.35ZM1282.2 1334.03L1289.69 1334.03L1289.69 1334.41L1282.2 1334.41L1282.2 1334.03ZM1282.2 1334.79L1289.69 1334.79L1289.69 1335.17L1282.2 1335.17L1282.2 1334.79ZM1282.2 1335.55L1289.69 1335.55L1289.69 1336.69L1282.2 1336.69L1282.2 1335.55ZM1282.2 1337.08L1289.69 1337.08L1289.69 1337.46L1282.2 1337.46L1282.2 1337.08ZM1282.2 1338.6L1289.69 1338.6L1289.69 1339.74L1282.2 1339.74L1282.2 1338.6ZM1281.1 1336.14L1281.1 1336.45L1278.92 1337.68L1281.1 1337.68L1281.1 1338.05L1281.06 1338.05C1281.05 1338.03 1281.02 1338.01 1281 1338.01C1280.98 1338.01 1280.94 1338 1280.89 1338L1278.16 1338L1278.16 1337.75L1280.47 1336.44L1278.16 1336.44L1278.16 1336.14L1281.1 1336.14ZM1282.2 1340.76L1289.69 1340.76L1289.69 1341.14L1282.2 1341.14L1282.2 1340.76ZM1282.2 1341.52L1289.69 1341.52L1289.69 1341.9L1282.2 1341.9L1282.2 1341.52ZM1282.2 1342.28L1289.69 1342.28L1289.69 1343.42L1282.2 1343.42L1282.2 1342.28ZM1282.2 1343.8L1289.69 1343.8L1289.69 1344.94L1282.2 1344.94L1282.2 1343.8ZM1282.2 1346.08L1289.69 1346.08L1289.69 1346.47L1282.2 1346.47L1282.2 1346.08ZM1280.81 1343.6L1280.81 1342.77L1281.1 1342.77L1281.1 1344.8L1280.81 1344.8L1280.81 1343.94L1278.16 1343.94L1278.16 1343.6L1280.81 1343.6ZM1282.2 1347.49L1289.69 1347.49L1289.69 1348.63L1282.2 1348.63L1282.2 1347.49ZM1282.2 1349.01L1289.69 1349.01L1289.69 1349.39L1282.2 1349.39L1282.2 1349.01ZM1282.2 1349.77L1289.69 1349.77L1289.69 1350.15L1282.2 1350.15L1282.2 1349.77ZM1282.2 1351.29L1289.69 1351.29L1289.69 1351.67L1282.2 1351.67L1282.2 1351.29ZM1282.2 1352.05L1289.69 1352.05L1289.69 1353.19L1282.2 1353.19L1282.2 1352.05ZM1279.02 1351L1279.02 1350.05L1278.16 1349.76L1278.16 1349.43L1281.15 1350.5L1281.15 1350.54L1278.16 1351.63L1278.16 1351.29L1279.02 1351ZM1279.27 1350.91L1280.39 1350.53L1279.27 1350.14L1279.27 1350.91ZM1282.2 1354.21L1289.69 1354.21L1289.69 1355.35L1282.2 1355.35L1282.2 1354.21ZM1282.2 1355.73L1289.69 1355.73L1289.69 1356.88L1282.2 1356.88L1282.2 1355.73ZM1282.2 1357.26L1289.69 1357.26L1289.69 1357.64L1282.2 1357.64L1282.2 1357.26ZM1282.2 1358.02L1289.69 1358.02L1289.69 1358.4L1282.2 1358.4L1282.2 1358.02ZM1282.2 1359.54L1289.69 1359.54L1289.69 1359.92L1282.2 1359.92L1282.2 1359.54ZM1281.1 1356.27L1281.1 1356.53L1279.66 1357.26L1281.1 1357.99L1281.1 1358.24L1278.16 1358.24L1278.16 1357.93L1280.38 1357.93L1279.19 1357.29L1279.19 1357.17L1280.37 1356.57L1278.16 1356.57L1278.16 1356.27L1281.1 1356.27ZM1282.2 1360.94L1289.69 1360.94L1289.69 1362.08L1282.2 1362.08L1282.2 1360.94ZM1282.2 1362.46L1289.69 1362.46L1289.69 1362.84L1282.2 1362.84L1282.2 1362.46ZM1282.2 1363.22L1289.69 1363.22L1289.69 1364.36L1282.2 1364.36L1282.2 1363.22ZM1282.2 1365.5L1289.69 1365.5L1289.69 1365.88L1282.2 1365.88L1282.2 1365.5ZM1282.2 1366.27L1289.69 1366.27L1289.69 1366.65L1282.2 1366.65L1282.2 1366.27ZM1281.1 1363.08L1281.1 1364.88L1280.81 1364.88L1280.81 1363.39L1279.85 1363.39L1279.85 1364.63L1279.54 1364.63L1279.54 1363.39L1278.45 1363.39L1278.45 1364.87L1278.16 1364.87L1278.16 1363.08L1281.1 1363.08ZM1282.2 1367.67L1289.69 1367.67L1289.69 1368.05L1282.2 1368.05L1282.2 1367.67ZM1282.2 1368.43L1289.69 1368.43L1289.69 1368.81L1282.2 1368.81L1282.2 1368.43ZM1282.2 1369.19L1289.69 1369.19L1289.69 1370.33L1282.2 1370.33L1282.2 1369.19ZM1282.2 1371.47L1289.69 1371.47L1289.69 1371.85L1282.2 1371.85L1282.2 1371.47ZM1282.2 1372.23L1289.69 1372.23L1289.69 1373.37L1282.2 1373.37L1282.2 1372.23ZM1281.1 1369.78L1281.1 1370.47C1281.1 1370.71 1281.07 1370.9 1281 1371.04C1280.93 1371.18 1280.83 1371.31 1280.7 1371.41C1280.44 1371.6 1280.08 1371.7 1279.62 1371.7C1279.14 1371.68 1278.77 1371.57 1278.53 1371.37C1278.27 1371.17 1278.15 1370.85 1278.16 1370.42L1278.16 1369.78L1281.1 1369.78ZM1278.41 1370.39C1278.41 1371.04 1278.81 1371.37 1279.59 1371.37C1279.99 1371.37 1280.29 1371.3 1280.5 1371.15C1280.72 1371 1280.82 1370.76 1280.82 1370.44L1280.82 1370.1L1278.41 1370.1L1278.41 1370.39Z" fill="black"/>
<path d="M0 217L23 228.69V248.411L0 236.721V217Z" fill="url(#paint1_linear_2166_2)"/>
<path d="M0 240.559L23 252.249V271.97L0 260.28V240.559Z" fill="url(#paint2_linear_2166_2)"/>
<path d="M0 264.117L23 275.807V295.528L0 283.838V264.117Z" fill="url(#paint3_linear_2166_2)"/>
<path d="M0 287.675L23 299.365V319.087L0 307.397V287.675Z" fill="url(#paint4_linear_2166_2)"/>
<path d="M0 311.234L23 322.924V342.645L0 330.955V311.234Z" fill="url(#paint5_linear_2166_2)"/>
<path d="M0 334.792L23 346.571V443.75L0 433.9V334.792Z" fill="url(#paint6_linear_2166_2)"/>
<defs>
<linearGradient id="paint0_linear_2166_2" x1="1297.89" y1="1602.56" x2="828.818" y2="1101.63" gradientUnits="userSpaceOnUse">
<stop stop-color="#FFEA31"/>
<stop offset="1" stop-color="#3B5070"/>
</linearGradient>
<linearGradient id="paint1_linear_2166_2" x1="11.5" y1="217" x2="11.5" y2="248.411" gradientUnits="userSpaceOnUse">
<stop stop-color="#F6F863"/>
<stop offset="1" stop-color="#F6BA5B"/>
</linearGradient>
<linearGradient id="paint2_linear_2166_2" x1="11.5" y1="240.559" x2="11.5" y2="271.97" gradientUnits="userSpaceOnUse">
<stop stop-color="#F6F863"/>
<stop offset="1" stop-color="#F6BA5B"/>
</linearGradient>
<linearGradient id="paint3_linear_2166_2" x1="11.5" y1="264.117" x2="11.5" y2="295.528" gradientUnits="userSpaceOnUse">
<stop stop-color="#F6F863"/>
<stop offset="1" stop-color="#F6BA5B"/>
</linearGradient>
<linearGradient id="paint4_linear_2166_2" x1="11.5" y1="287.675" x2="11.5" y2="319.087" gradientUnits="userSpaceOnUse">
<stop stop-color="#F6F863"/>
<stop offset="1" stop-color="#F6BA5B"/>
</linearGradient>
<linearGradient id="paint5_linear_2166_2" x1="11.5" y1="311.234" x2="11.5" y2="342.645" gradientUnits="userSpaceOnUse">
<stop stop-color="#F6F863"/>
<stop offset="1" stop-color="#F6BA5B"/>
</linearGradient>
<linearGradient id="paint6_linear_2166_2" x1="11.5" y1="334.792" x2="11.5" y2="443.75" gradientUnits="userSpaceOnUse">
<stop stop-color="#F6F863"/>
<stop offset="1" stop-color="#F6BA5B"/>
</linearGradient>
</defs>
</svg>
