<svg width="65" height="52" viewBox="0 0 65 52" fill="none" xmlns="http://www.w3.org/2000/svg">
<path d="M20.428 51.9396H15.3486V47.3736H20.348V48.3849H16.7075V49.1625H20.1535V50.1163H16.7098V50.9027H20.428V51.9396ZM49.6506 51.9396H44.6512V47.446H49.5726V48.4363H45.991V49.2011H49.3825V50.139H45.991V50.9137H49.6506V51.9396ZM27.318 51.9396H25.2603L22.5545 48.5246H22.5281V51.9396H21.1834V47.3736H23.2712L25.9439 50.7928H25.97V47.3736H27.318V51.9396ZM43.6008 51.9396H41.5462L38.8403 48.5246H38.8139V51.9396H37.4631V47.3736H39.551L42.2236 50.7928H42.2497V47.3736H43.6005L43.6008 51.9396ZM31.495 51.998L31.2858 52L31.1271 51.9995L30.974 51.998L30.8267 51.9955L30.6845 51.992L30.5485 51.9876L30.4179 51.9823L30.2928 51.9759L30.1734 51.9684C29.9036 51.955 29.6357 51.9158 29.3736 51.8515C29.1815 51.8046 29.0004 51.7215 28.8407 51.6068C28.7009 51.5 28.591 51.3603 28.5213 51.2007C28.4373 51.0074 28.3838 50.8028 28.3626 50.5938C28.3377 50.3484 28.3245 50.102 28.323 49.8554V49.6162C28.321 49.3324 28.3349 49.0487 28.3646 48.7664C28.3845 48.5564 28.437 48.3505 28.5202 48.1561C28.5912 47.9972 28.7013 47.858 28.8407 47.7512C29.0006 47.6373 29.1821 47.5557 29.3746 47.5114C29.61 47.454 29.85 47.4169 30.0919 47.4002L30.1724 47.3955C30.2118 47.393 30.2519 47.3905 30.2928 47.3886L30.4185 47.3826L30.4832 47.3798L30.6168 47.3751L30.7559 47.3714L30.9004 47.3689L30.9745 47.3677L31.1269 47.3662L31.2848 47.3657H31.4869L31.638 47.3662L31.7835 47.3677L31.9236 47.3701L31.9917 47.3714L32.1237 47.3751L32.2499 47.3798L32.3111 47.3823L32.4294 47.3886C32.6627 47.4 32.8948 47.4278 33.1241 47.4719C33.2917 47.5025 33.4537 47.5579 33.6045 47.636C33.7256 47.6992 33.8297 47.79 33.9076 47.9006C33.9851 48.0175 34.0371 48.1486 34.0605 48.2861C34.0869 48.4374 34.1011 48.5905 34.1029 48.744V48.9852H32.7884V48.9298C32.791 48.8402 32.7739 48.7509 32.7389 48.6681C32.6978 48.5906 32.6291 48.5305 32.5459 48.499C32.4308 48.4553 32.3102 48.4266 32.1874 48.4137L32.1412 48.4097C32.0833 48.4043 32.0193 48.3998 31.949 48.3958L31.8617 48.3918L31.7685 48.3886L31.6694 48.3861L31.5646 48.3846L31.4536 48.3839H31.2794L31.1657 48.3846L31.005 48.3866L30.9047 48.3888L30.8095 48.3916L30.7198 48.3951L30.6772 48.3968C30.5237 48.402 30.3711 48.4209 30.2212 48.4533C30.1171 48.4751 30.0188 48.5179 29.933 48.5791C29.8593 48.6363 29.8037 48.7129 29.773 48.7999C29.7397 48.8979 29.7184 48.9995 29.7095 49.1024L29.7062 49.1466C29.7042 49.174 29.7024 49.2028 29.7009 49.2324L29.6966 49.325L29.6935 49.4242L29.6918 49.5296L29.6913 49.5851V49.7791L29.6925 49.886L29.6951 49.986L29.6986 50.0798C29.7002 50.1101 29.7017 50.1392 29.7037 50.1671L29.7062 50.2083C29.7128 50.324 29.7352 50.4384 29.773 50.5481C29.804 50.6346 29.8593 50.7105 29.933 50.7669C30.0188 50.8281 30.1171 50.8709 30.2212 50.8928C30.3496 50.9204 30.4802 50.9383 30.6114 50.946L30.7198 50.9512L30.8095 50.9547L30.9047 50.9577L31.005 50.9599L31.1109 50.9612L31.2218 50.9619H31.5653L31.6715 50.9617L31.7715 50.9604C31.8365 50.9592 31.8975 50.9572 31.9543 50.954L32.0942 50.944L32.1849 50.937C32.2578 50.9311 32.323 50.9244 32.3809 50.9157C32.4665 50.9037 32.5503 50.8808 32.6297 50.8473C32.6863 50.8224 32.7361 50.7843 32.7744 50.7363C32.8092 50.6904 32.8324 50.6371 32.842 50.5807C32.8532 50.5113 32.8585 50.4411 32.8582 50.3707V50.2439H31.0695V49.3625H34.1565V50.3767C34.1587 50.57 34.144 50.7632 34.113 50.9542C34.0881 51.1055 34.0346 51.2509 33.9554 51.383C33.8792 51.5036 33.7751 51.6053 33.652 51.6802C33.5006 51.7686 33.3356 51.8324 33.1634 51.8692C32.9598 51.9144 32.7531 51.9453 32.5449 51.9622L32.4558 51.9684C32.3969 51.9726 32.3357 51.9764 32.273 51.9799L32.144 51.9858L32.0775 51.9883L31.9404 51.9925C31.8703 51.9945 31.7982 51.9958 31.724 51.9968L31.5727 51.998H31.495ZM36.4721 51.9508H35.1061V47.4184H36.4721V51.9508ZM5.22357 44.9804L4.87521 44.9819L4.6797 44.9814L4.58322 44.9806L4.39507 44.9786C4.30214 44.9771 4.21099 44.9754 4.12161 44.9734L3.9454 44.9687L3.77427 44.963L3.60771 44.956L3.44622 44.9483C3.41998 44.9468 3.39375 44.9454 3.36751 44.9438L3.21339 44.9344C3.18825 44.9328 3.16311 44.9311 3.13798 44.9294C2.70443 44.9045 2.27366 44.8452 1.84991 44.7521C1.53447 44.6854 1.23173 44.5704 0.952861 44.4113C0.724273 44.2764 0.530241 44.0921 0.385634 43.8724C0.23643 43.6368 0.135125 43.3752 0.0872944 43.1019C0.0250005 42.7574 -0.00407289 42.4079 0.000458363 42.0581V36.9075H2.39683V41.2971C2.39683 41.4224 2.39886 41.5396 2.40318 41.6485L2.408 41.7547C2.41155 41.8236 2.41638 41.889 2.42196 41.9507L2.42628 41.9964C2.43986 42.1664 2.47976 42.3334 2.5446 42.4916C2.59919 42.6227 2.68806 42.7376 2.80232 42.8244C2.93612 42.9186 3.08771 42.986 3.24818 43.0226C3.44683 43.0718 3.64958 43.1034 3.854 43.1171L3.98577 43.1245L4.09952 43.1295L4.21886 43.134L4.34353 43.1377L4.47378 43.1405L4.60962 43.1427L4.7513 43.1439L4.89857 43.1442H5.10068L5.24769 43.1439L5.38886 43.1425L5.45742 43.1415L5.59046 43.1387L5.65495 43.137L5.77988 43.1328L5.84005 43.1303L5.9566 43.125L6.01246 43.1218L6.0673 43.1186C6.29754 43.1073 6.52629 43.0758 6.75082 43.0246C6.91185 42.9892 7.06372 42.9218 7.19693 42.8264C7.3097 42.7383 7.39799 42.6239 7.45363 42.4936C7.51915 42.3355 7.5594 42.1685 7.57296 41.9984C7.59175 41.8002 7.6014 41.5692 7.6014 41.305V36.9065H9.99879V42.0569C10.0022 42.4054 9.97513 42.7537 9.91779 43.0977C9.87342 43.3716 9.77483 43.6343 9.62758 43.8712C9.48527 44.0906 9.29326 44.275 9.06644 44.4101C8.78847 44.5693 8.48645 44.6843 8.17168 44.7508C7.78173 44.8364 7.38581 44.8934 6.9872 44.9212L6.80236 44.9331L6.64671 44.9423L6.48624 44.9508L6.40398 44.9545L6.23615 44.9612L6.06298 44.9669L5.88525 44.9719L5.70244 44.9754L5.609 44.9769L5.41857 44.9794L5.22357 44.9804ZM22.3216 44.8839H18.7382L14.0202 38.9115H13.9737V44.8839H11.6238V36.8958H15.2638L19.9242 42.8741H19.9699V36.8958H22.3199V44.8799L22.3216 44.8839ZM26.3999 40.929H29.3868L29.5085 40.9285L29.6247 40.9275L29.7362 40.9258L29.8426 40.9233L29.8936 40.9215L29.9927 40.9181L30.0861 40.9136L30.175 40.9086L30.2174 40.9056L30.2986 40.8994L30.3748 40.8922C30.5702 40.881 30.7607 40.828 30.9329 40.7368C31.056 40.6641 31.1451 40.5472 31.1817 40.4109C31.2251 40.2294 31.2449 40.0436 31.2401 39.8573V39.7196C31.2445 39.5356 31.2249 39.3519 31.1817 39.1729C31.164 39.1055 31.1326 39.0424 31.0893 38.9872C31.046 38.9321 30.9918 38.8861 30.9298 38.8521C30.7555 38.7643 30.5644 38.7133 30.3687 38.7024L30.2925 38.6954L30.2115 38.6892C30.1974 38.6881 30.1833 38.6871 30.1691 38.6862L30.0808 38.6812L29.9876 38.6768L29.8896 38.673L29.7865 38.6703L29.6786 38.6678L29.5656 38.6666L29.4475 38.6658H26.3999V40.929ZM33.654 44.8839H31.2858V44.236C31.2876 44.035 31.2782 43.8338 31.2574 43.6339C31.2435 43.4855 31.2021 43.3407 31.1352 43.2069C31.0752 43.0927 30.9856 42.996 30.8752 42.9266C30.739 42.8462 30.5889 42.7908 30.4324 42.7632C30.209 42.72 29.9825 42.6942 29.755 42.6861L29.7004 42.6833L29.5872 42.6784C29.5677 42.6777 29.5482 42.677 29.5288 42.6764L29.4074 42.6727L29.281 42.6697L29.1489 42.6674C29.1263 42.6671 29.1037 42.6669 29.0811 42.6667L28.9415 42.6654H28.8696L26.3999 42.6652V44.8836H24.0258V36.8958H30.3484C30.8604 36.8876 31.3722 36.9223 31.8782 36.9995L31.9866 37.0169C32.3514 37.0715 32.6979 37.2099 32.9976 37.4208C33.2454 37.6116 33.425 37.8745 33.5105 38.1716C33.6131 38.5479 33.6606 38.9369 33.652 39.3264V39.6066C33.6553 39.8828 33.6302 40.1586 33.577 40.4299C33.5344 40.645 33.4518 40.8507 33.3333 41.0367C33.2217 41.2063 33.0737 41.35 32.8996 41.4577C32.6979 41.578 32.4766 41.6635 32.2453 41.7104V41.7559C32.4851 41.7904 32.7207 41.8492 32.9481 41.9313C33.1202 41.993 33.2701 42.1024 33.3798 42.2461C33.4939 42.4099 33.5674 42.5975 33.5943 42.794C33.637 43.08 33.6563 43.3693 33.652 43.6585V44.8796L33.654 44.8839ZM44.068 44.8839H35.2102V36.8958H43.9283V38.6616H37.5832V40.0195H43.5926V41.6875H37.5834V43.0634H44.068V44.8839ZM52.0762 41.7895L50.4151 38.5855H50.3565L48.7071 41.7895H52.0762ZM56.2707 44.8896H53.6859L52.9389 43.4566H47.8557L47.1207 44.8896H44.5552L48.9325 36.9067H51.8741L56.2707 44.8896ZM65 44.8896H57.1492V36.9067H59.5458V43.0365H65V44.8896ZM32.5 1.55126e-07C34.6654 -0.000293812 36.8097 0.417222 38.8103 1.2287C40.811 2.04019 42.6289 3.22974 44.1602 4.72944C45.6915 6.22913 46.9062 8.00959 47.7349 9.96915C48.5636 11.9287 48.9902 14.029 48.9902 16.15C48.9907 25.0702 41.6089 32.3018 32.5023 32.3022C23.3957 32.3027 16.0128 25.0722 16.0121 16.152C16.0115 7.32131 23.2466 0.145491 32.2275 0.00248718L32.5 1.55126e-07ZM38.5567 1.82498C32.6414 -0.575 25.8326 0.751828 21.3055 5.18645C16.7783 9.62131 15.4243 16.2905 17.8747 22.0848C20.3252 27.8786 26.0975 31.6561 32.5002 31.6556C41.2422 31.6551 48.3288 24.7133 48.3288 16.1503C48.3288 9.87897 44.4719 4.22496 38.5567 1.82498ZM31.0047 6.37624C29.6245 7.14722 28.8478 8.40491 28.8478 9.46065C28.8478 10.7365 29.4409 10.9372 29.8654 10.8514L29.9165 10.8397C29.9248 10.8375 29.9331 10.8352 29.9414 10.8327L29.9893 10.8173C29.997 10.8145 30.0046 10.8116 30.0122 10.8086L30.0566 10.7902C30.0636 10.787 30.0706 10.7837 30.0775 10.7803L30.1171 10.7596L30.1534 10.7377L30.1861 10.7154C30.1912 10.7114 30.1963 10.7076 30.2009 10.7037V20.5011C30.2532 20.6242 30.3209 20.7403 30.403 20.8468C30.5412 21.034 30.7232 21.186 30.9338 21.2901C31.1445 21.3941 31.3775 21.4472 31.6133 21.4449C32.044 21.4449 32.5271 21.2469 32.9463 21.0136L33.0644 20.9465L33.1787 20.8778L33.2878 20.8092L33.3919 20.7411L33.49 20.6744L33.5814 20.6102L33.7429 20.4921L33.8711 20.3934L33.9615 20.321L34.0148 20.2762V12.3431C34.0148 11.5358 33.394 10.5604 32.7722 10.2276L32.858 10.2162L32.9585 10.2075L33.055 10.2023L33.168 10.1998H33.2089L33.2952 10.2018L33.3404 10.2038L33.4343 10.2095C33.4826 10.2132 33.5329 10.2182 33.5842 10.2244L33.6888 10.2393C34.0252 10.2923 34.4091 10.4102 34.7577 10.6544L34.8128 10.6942C34.9796 10.4939 35.1571 10.3024 35.3445 10.1205C36.7963 8.7235 38.1908 8.02887 39.4555 7.64089L39.6444 7.58493C39.6755 7.57601 39.7066 7.56722 39.7378 7.55857L39.9237 7.50883C39.9851 7.49316 40.0463 7.47774 40.1073 7.46332L40.2886 7.42104L40.4678 7.38199L40.6448 7.34618L40.9063 7.29718L40.9919 7.28201L40.886 7.36807L40.7339 7.49888L40.6374 7.58543L40.5295 7.68566L40.4112 7.79907L40.2837 7.92541L40.1946 8.01668L40.1024 8.11318L40.008 8.21515L39.9113 8.32259L39.813 8.435L39.7135 8.55264L39.6129 8.675L39.5626 8.73817L39.4616 8.86749C39.3946 8.95578 39.3273 9.04681 39.261 9.14107L39.162 9.28432C39.129 9.33282 39.0967 9.38206 39.0645 9.43205L38.9688 9.58376C38.4482 10.4313 38.0323 11.4664 38.0323 12.6105L38.0379 14.1783L38.092 20.4192C38.7456 21.034 39.5857 20.7572 40.4691 20.1198L40.5872 20.0328L40.6463 19.9877L40.7649 19.8947L40.8246 19.8467L40.9436 19.7487L41.003 19.6982L41.1224 19.5955L41.242 19.4898L41.4212 19.3269L41.6002 19.1596L41.7762 18.9912L41.9514 18.8203L42.0674 18.7052L42.2985 18.4739L42.2792 18.5614L42.2571 18.6544L42.219 18.8037L42.1898 18.9091L42.1576 19.0193L42.122 19.1337L42.0834 19.2528L42.0413 19.3757L41.9958 19.5025L41.9468 19.6328L41.8943 19.7666L41.8376 19.9037L41.7775 20.0439L41.7457 20.1151L41.6797 20.2593L41.6091 20.4061L41.5345 20.5548L41.4956 20.6301L41.4144 20.7821C41.4007 20.8077 41.3864 20.8333 41.3722 20.8589L41.2846 21.0134C40.4584 22.438 39.0518 24.0476 36.7179 25.1277L35.1 23.345L32.3697 26.0349C30.8152 26.0144 29.2866 25.6421 27.9034 24.9472C26.5201 24.2522 25.3197 23.2533 24.3958 22.0286C24.6863 22.1171 24.9861 22.1723 25.2895 22.193C25.7364 22.2009 26.2209 22.0405 26.2209 21.3016V14.0465C26.2275 13.8598 26.1894 13.6742 26.1096 13.5045C26.0297 13.3349 25.9104 13.186 25.7611 13.0697C25.6119 12.9534 25.4368 12.8731 25.2501 12.8351C25.0634 12.7971 24.8702 12.8025 24.686 12.851C24.0637 12.9902 23.5028 13.8105 23.0935 14.6071L23.0186 14.756L22.9475 14.9033L22.88 15.048L22.8165 15.1893L22.7571 15.3256L22.702 15.4564L22.6512 15.5805L22.5631 15.8041L22.494 15.9883L22.4107 16.2254C22.3967 14.7979 22.7003 13.3846 23.3003 12.0837C23.9003 10.7827 24.7824 9.6254 25.8852 8.69216C27.5374 7.32056 29.1563 6.73611 30.4723 6.4705L30.6538 6.43543C30.6838 6.42971 30.7135 6.42449 30.7432 6.41926L30.9184 6.38992L31.0047 6.37624Z" fill="white"/>
</svg>
