<svg width="11" height="12" viewBox="0 0 11 12" fill="none" xmlns="http://www.w3.org/2000/svg">
<path d="M1 6.24999C1 6.53842 1.08553 6.82037 1.24577 7.0602C1.40602 7.30002 1.63378 7.48694 1.90025 7.59731C2.16673 7.70769 2.45995 7.73657 2.74284 7.6803C3.02573 7.62403 3.28558 7.48514 3.48953 7.28119C3.69348 7.07723 3.83238 6.81738 3.88865 6.5345C3.94492 6.25161 3.91604 5.95838 3.80566 5.69191C3.69528 5.42543 3.50836 5.19767 3.26854 5.03743C3.02872 4.87718 2.74676 4.79166 2.45833 4.79166M6.83333 3.04166L3.91667 5.08332M6.83333 9.45832L3.91667 7.41666M8.29167 11.5C8.5801 11.5 8.86205 11.4145 9.10187 11.2542C9.3417 11.094 9.52861 10.8662 9.63899 10.5997C9.74937 10.3333 9.77825 10.04 9.72198 9.75715C9.66571 9.47426 9.52682 9.21441 9.32286 9.01046C9.11891 8.80651 8.85906 8.66761 8.57617 8.61134C8.29329 8.55507 8.00006 8.58395 7.73359 8.69433C7.46711 8.80471 7.23935 8.99163 7.07911 9.23145C6.91886 9.47127 6.83333 9.75322 6.83333 10.0417M9.55458 3.18749C9.41037 3.43728 9.19532 3.6387 8.93663 3.76627C8.67795 3.89384 8.38724 3.94184 8.10127 3.90419C7.8153 3.86654 7.54692 3.74494 7.33007 3.55476C7.11321 3.36458 6.95763 3.11437 6.88298 2.83576C6.80833 2.55715 6.81797 2.26267 6.91069 1.98954C7.00341 1.71642 7.17504 1.47692 7.40387 1.30134C7.63271 1.12576 7.90847 1.02198 8.19629 1.00312C8.4841 0.984264 8.77105 1.05118 9.02083 1.19541" stroke="#FFEA31" stroke-width="0.6" stroke-linecap="round"/>
</svg>
